<?xml version="1.0" encoding="utf-8"?>
<!-- Generator: Adobe Illustrator 18.0.0, SVG Export Plug-In . SVG Version: 6.00 Build 0)  -->
<!DOCTYPE svg PUBLIC "-//W3C//DTD SVG 1.1//EN" "http://www.w3.org/Graphics/SVG/1.1/DTD/svg11.dtd">
<svg version="1.1" id="Layer_1" xmlns="http://www.w3.org/2000/svg" xmlns:xlink="http://www.w3.org/1999/xlink" x="0px" y="0px"
	 viewBox="30 130 900 300" enable-background="new 30 130 900 300" xml:space="preserve">
<g id="track">
	<g>
		<path fill="#FFFFFF" d="M88.6,157.6c0,0,0.9,0.4,2.5,1.2c1.7,0.8,4.1,1.9,7.3,3.5c6.2,3.1,15.4,7.8,26.7,13.9
			c11.4,6.1,24.9,13.7,40.7,22.3c1.9,1,4,2.1,6,3.2c2.1,1,4.1,2.1,6.2,3.2c4.1,2.2,8.6,4.3,13.1,6.6c9.1,4.3,18.5,8.8,28.8,13.1
			c20.2,8.7,42.5,17,66.9,23.9c3,0.9,6.1,1.7,9.2,2.5c3.1,0.8,6.2,1.7,9.3,2.3c6.4,1.4,12.7,3,19.2,4.1c13,2.6,26.4,4.4,40.1,5.7
			c3.4,0.3,6.9,0.5,10.4,0.8c3.5,0.3,7,0.3,10.5,0.4c1.7,0,3.5,0.1,5.3,0.1h0.6c0.1,0,0.1,0,0.3,0h0.4h1.3h2.7c1.8,0,3.6,0,5.3-0.1
			c1.7-0.1,3.5-0.1,5.2-0.3c7-0.5,14.1-1.3,21.1-2.5c7-1.3,14.1-2.7,21-4.7c28-7.4,55.1-19.8,81.3-33.7c13.1-7,25.9-14.4,38.8-21.8
			c6.4-3.8,12.8-7.4,19.2-11.1c6.4-3.8,12.7-7.4,19.2-11c12.8-7.1,25.8-14,39-20.1c13.2-6,26.8-11.1,40.6-14.9
			c7-1.8,13.9-3.4,21-4.4c7-1,14.1-1.7,21.1-1.8c7-0.1,14,0.3,20.7,1c1.7,0.1,3.4,0.5,5.1,0.8c1.7,0.3,3.4,0.5,5.1,0.9
			c1.7,0.4,3.4,0.6,4.9,1c1.7,0.4,3.2,0.8,4.9,1.2l2.5,0.6l2.3,0.8c1.6,0.5,3.1,0.9,4.8,1.4c1.6,0.5,3.1,1.2,4.7,1.7s3.1,1,4.5,1.7
			c3,1.3,6,2.5,8.8,3.8c1.4,0.6,2.9,1.3,4.3,2.1s2.7,1.4,4.1,2.2c2.7,1.4,5.4,3,8,4.5c2.7,1.6,5.2,3.2,7.6,4.8
			c2.6,1.6,4.9,3.4,7.3,5.1l1.8,1.3l0.4,0.3l0.4,0.3l0.3,0.1l0.8,0.6c1.2,0.9,2.2,1.7,3.2,2.6c1,0.9,2.2,1.7,3.2,2.6
			c1,0.9,2.2,1.7,3.2,2.7c2.1,1.9,4.1,3.9,6.2,5.7c1,0.9,2.1,1.9,3,2.9c0.9,1,1.8,1.9,2.9,3c1.8,1.9,3.6,3.9,5.4,5.7
			c3.5,3.9,6.7,7.8,9.9,11.5c3,3.9,6,7.5,8.7,11.3c1.3,1.8,2.6,3.8,3.9,5.6c1.3,1.8,2.6,3.6,3.8,5.4c2.3,3.6,4.7,7,6.7,10.4
			c2.1,3.4,4.1,6.6,6,9.7c1.8,3.1,3.5,6.1,5.1,9.1c6.4,11.5,10.6,20.9,13.6,27.2c2.9,6.4,4.1,9.9,4.1,9.9l-1.2,0.5
			c0,0-1.9-3.2-5.6-9.1c-3.6-6-9.2-14.5-16.6-25.1c-3.8-5.3-7.9-11.1-12.4-17.4c-4.7-6.2-9.9-12.7-15.6-19.6
			c-2.9-3.4-6-6.9-9.1-10.4c-1.6-1.8-3.2-3.5-4.9-5.2c-1.7-1.7-3.4-3.6-5.1-5.3c-1.8-1.7-3.6-3.5-5.4-5.2c-0.9-0.9-1.8-1.8-2.7-2.6
			c-0.9-0.9-1.9-1.7-2.9-2.5c-1.9-1.7-3.9-3.4-5.8-5.1c-0.9-0.9-2.1-1.7-3.2-2.5c-1.2-0.8-2.2-1.7-3.4-2.5c-1.2-0.8-2.2-1.7-3.4-2.6
			l-0.9-0.6l-0.3-0.1c-0.1-0.1,0.3,0.1,0,0l-0.4-0.3l-1.7-1.2c-2.3-1.6-4.5-3.1-7-4.5s-4.8-3-7.3-4.4c-2.5-1.4-4.9-2.9-7.5-4.1
			c-10.2-5.2-21.3-9.9-33.1-13c-1.4-0.4-3-0.8-4.4-1.2c-1.6-0.3-3-0.6-4.5-0.9c-1.6-0.4-3-0.6-4.5-0.9c-1.6-0.3-3.1-0.5-4.7-0.8
			c-6.2-0.9-12.4-1.3-18.9-1.4c-6.4,0-13,0.3-19.4,0.9c-6.6,0.6-13.1,1.8-19.7,3.2c-26.4,5.8-53,17-78.9,30.1
			c-6.5,3.2-13,6.6-19.6,10.1c-6.5,3.5-13,7-19.4,10.5c-13,7-26.1,14.3-39.3,21.3c-26.3,14-53.5,26.7-81.9,35.1
			c-7.1,2.1-14.3,3.9-21.5,5.3s-14.5,2.6-21.8,3.4c-3.6,0.3-7.4,0.8-10.9,0.9l-2.7,0.1l-1.3,0.1h-0.8h-0.6c-1.8,0-3.6,0-5.3,0
			c-3.6,0-7.1,0.1-10.8,0c-3.5-0.1-7.1-0.3-10.6-0.3c-14.1-0.6-28-1.8-41.4-3.9c-6.7-0.9-13.4-2.2-19.8-3.4
			c-3.2-0.6-6.5-1.3-9.7-2.1c-1.6-0.4-3.2-0.6-4.8-1c-1.6-0.4-3.1-0.8-4.8-1.2c-3.1-0.8-6.2-1.6-9.3-2.3c-3.1-0.9-6.1-1.7-9.2-2.6
			c-1.6-0.4-3-0.9-4.5-1.3c-1.6-0.4-3-0.9-4.4-1.4c-3-0.9-5.8-1.8-8.8-2.7c-2.9-0.9-5.7-1.9-8.6-3c-2.9-0.9-5.6-1.9-8.4-3
			c-2.7-1-5.4-2.1-8.2-3.1c-2.7-1-5.3-2.2-7.9-3.2c-21-8.4-39.5-17.6-55.6-26.4c-16.2-8.7-29.7-17.4-40.2-25.3s-18.1-15-23.1-20.1
			c-2.5-2.6-4.3-4.5-5.4-6c-1.2-1.4-1.8-2.2-1.8-2.2L88.6,157.6z"/>
	</g>
	<g>
		<path fill="#FFFFFF" d="M40.6,220.8c0,0,3.1,1.7,9.1,4.9c5.8,3.2,14.5,7.9,25.5,13.7s24.4,12.8,39.7,20.5
			c15.4,7.6,32.9,16.1,52.2,24.4c19.4,8.3,41,16.1,64,22.8c5.8,1.6,11.7,3.2,17.8,4.7c3,0.6,6,1.6,9.1,2.2c3.1,0.6,6.1,1.3,9.2,1.9
			c3.1,0.6,6.2,1.3,9.3,1.8c3.1,0.5,6.4,1.2,9.5,1.7c6.4,0.9,12.8,1.9,19.3,2.5c3.2,0.3,6.5,0.8,9.9,0.9c3.2,0.3,6.6,0.4,10,0.6
			c3.4,0.3,6.6,0.3,10,0.4c1.7,0,3.4,0.1,5.1,0.1l2.5,0.1h0.6h0.5h1.3c1.7,0,3.5,0,5.2-0.1c1.7,0,3.2-0.1,4.9-0.3
			c3.2-0.1,6.6-0.5,10-0.8c6.7-0.8,13.4-1.7,20.1-3.1c26.8-5.3,53.3-15.6,78.8-27.6c25.5-12.3,50.4-26.3,75.1-39.8
			c24.8-13.5,49.6-26.2,75.2-35.5c1.6-0.5,3.2-1.2,4.8-1.7c1.6-0.5,3.2-1,4.8-1.6c1.6-0.5,3.2-1,4.8-1.6c1.6-0.5,3.2-1,4.8-1.4
			c6.5-1.8,13-3.2,19.4-4.4s13.1-1.9,19.4-2.3c1.6-0.1,3.2-0.1,4.8-0.3l2.5-0.1h2.5c1.6,0,3.2,0,4.8,0c1.6,0.1,3.2,0.1,4.8,0.3
			c1.6,0,3.1,0.3,4.7,0.4c1.6,0.1,3.1,0.3,4.7,0.5c1.6,0.3,3.1,0.4,4.7,0.6l2.3,0.4l2.3,0.4c1.6,0.3,3,0.6,4.5,0.9
			c1.6,0.4,3,0.6,4.4,1c3,0.6,5.8,1.6,8.7,2.5c2.9,0.8,5.6,1.9,8.4,2.9c2.7,1,5.4,2.1,8,3.2s5.2,2.3,7.8,3.6
			c2.5,1.3,4.9,2.5,7.4,3.9c9.7,5.2,18.4,11.1,26.3,17.1c1.9,1.4,3.9,2.9,5.8,4.3c1.9,1.4,3.8,3,5.6,4.4c3.8,2.9,7.1,5.8,10.6,8.6
			c13.5,11.1,24.6,21.8,33.4,30.7c8.8,8.9,15.3,16.5,19.6,21.6c4.3,5.2,6.4,8.2,6.4,8.2l-1,0.8c0,0-2.5-2.6-7.4-7.1
			c-4.8-4.5-12.1-11.3-21.5-19.3c-4.7-4-10-8.4-15.8-13.2c-3-2.3-6-4.8-9.2-7.3c-3.2-2.5-6.5-5.1-10-7.6c-3.5-2.6-7-5.3-10.8-7.9
			c-1.8-1.3-3.8-2.7-5.7-4s-3.9-2.7-6-4.1c-1-0.6-2.1-1.4-3-2.1l-1.6-1l-1.6-0.9c-2.1-1.3-4.1-2.7-6.2-4c-2.2-1.3-4.3-2.6-6.5-3.9
			s-4.5-2.5-6.7-3.8c-9.2-4.8-19.2-9.2-29.8-12.6c-10.6-3.2-21.9-5.8-33.8-6.7c-23.7-2.2-49.1,1.9-74,10.6
			c-25,8.6-49.4,21.6-73.8,35.4c-24.5,13.7-48.9,28.6-74.5,41.9c-25.5,13.2-52.5,24.8-80.8,31.4c-7,1.7-14.1,3-21.3,4
			c-3.6,0.4-7.1,0.9-10.8,1.2c-1.8,0.1-3.6,0.3-5.4,0.4c-1.7,0.1-3.5,0.1-5.2,0.3h-1.3H343h-0.6h-2.6c-1.8,0-3.5,0-5.3,0
			c-3.5,0-7,0.1-10.5-0.1c-3.5-0.1-6.9-0.3-10.4-0.4c-3.5-0.1-6.9-0.5-10.2-0.8c-6.9-0.4-13.5-1.4-20.2-2.2c-3.4-0.4-6.6-1-9.9-1.6
			c-3.2-0.5-6.6-1-9.7-1.7c-3.2-0.6-6.5-1.3-9.6-1.9c-3.2-0.6-6.4-1.4-9.5-2.2c-6.2-1.4-12.3-3.1-18.4-4.7c-3-0.8-6-1.7-8.9-2.6
			s-6-1.7-8.8-2.7c-5.8-1.8-11.4-3.8-17-5.8c-11-3.9-21.5-8.3-31.6-12.4c-20-8.6-37.7-17.8-52.9-26.8s-27.7-17.9-37.7-25.7
			c-10-7.8-17.5-14.4-22.4-19.1c-4.9-4.7-7.4-7.4-7.4-7.4L40.6,220.8z"/>
	</g>
	<line fill="none" stroke="#FFFFFF" stroke-width="4" stroke-miterlimit="10" x1="83.9" y1="251.1" x2="138.4" y2="192"/>
	<line fill="none" stroke="#FFFFFF" stroke-width="4" stroke-miterlimit="10" x1="131" y1="277.5" x2="185.9" y2="217.6"/>
	<line fill="none" stroke="#FFFFFF" stroke-width="4" stroke-miterlimit="10" x1="179.9" y1="299.3" x2="228.4" y2="236.3"/>
	<line fill="none" stroke="#FFFFFF" stroke-width="4" stroke-miterlimit="10" x1="228.4" y1="315.6" x2="271.6" y2="251.1"/>
	<line fill="none" stroke="#FFFFFF" stroke-width="4" stroke-miterlimit="10" x1="281.5" y1="327.3" x2="312.1" y2="261.1"/>
	<line fill="none" stroke="#FFFFFF" stroke-width="4" stroke-miterlimit="10" x1="334" y1="331.7" x2="346" y2="267.8"/>
	<line fill="none" stroke="#FFFFFF" stroke-width="4" stroke-miterlimit="10" x1="382.1" y1="327.7" x2="383.4" y2="268.7"/>
	<line fill="none" stroke="#FFFFFF" stroke-width="4" stroke-miterlimit="10" x1="427.6" y1="314.4" x2="424.8" y2="265.5"/>
	<line fill="none" stroke="#FFFFFF" stroke-width="4" stroke-miterlimit="10" x1="464.6" y1="298" x2="460.7" y2="256.5"/>
	<line fill="none" stroke="#FFFFFF" stroke-width="4" stroke-miterlimit="10" x1="505.3" y1="276.4" x2="501.8" y2="240.1"/>
	<line fill="none" stroke="#FFFFFF" stroke-width="4" stroke-miterlimit="10" x1="545.3" y1="253.8" x2="545.3" y2="217.6"/>
	<line fill="none" stroke="#FFFFFF" stroke-width="4" stroke-miterlimit="10" x1="578.5" y1="236.3" x2="582.3" y2="196.9"/>
	<line fill="none" stroke="#FFFFFF" stroke-width="4" stroke-miterlimit="10" x1="623.4" y1="217.6" x2="628.8" y2="172.1"/>
	<line fill="none" stroke="#FFFFFF" stroke-width="4" stroke-miterlimit="10" x1="678.5" y1="207.8" x2="689.4" y2="149.5"/>
	<line fill="none" stroke="#FFFFFF" stroke-width="4" stroke-miterlimit="10" x1="731.5" y1="216.6" x2="760" y2="149.5"/>
	<line fill="none" stroke="#FFFFFF" stroke-width="4" stroke-miterlimit="10" x1="773.1" y1="238.1" x2="818.7" y2="172.1"/>
	<line fill="none" stroke="#FFFFFF" stroke-width="4" stroke-miterlimit="10" x1="808.6" y1="264.2" x2="860.3" y2="212.6"/>
	<line fill="none" stroke="#FFFFFF" stroke-width="4" stroke-miterlimit="10" x1="844.4" y1="294.3" x2="895.7" y2="256.5"/>
</g>
<g id="supports" display="none">
	<g display="inline">
		<g>
			<path fill="#231F20" d="M511.9,260c-1,38-2.1,76-3.2,113.9c0,0.6,3-0.3,3-1c1-38,2.1-76,3.2-113.9
				C514.9,258.4,511.9,259.4,511.9,260L511.9,260z"/>
		</g>
	</g>
	<g display="inline">
		<g>
			<path fill="#231F20" d="M174.5,286.7c-1.8,28.9-3.8,57.8-5.6,86.7c0,0.5,3.2,0.6,3.2,0.1c1.8-28.9,3.8-57.8,5.6-86.7
				C177.7,286.4,174.5,286.2,174.5,286.7L174.5,286.7z"/>
		</g>
	</g>
	<g display="inline">
		<g>
			<path fill="#231F20" d="M334.3,334.8c-0.8,12.7-1.6,25.3-2.3,38c-0.1,1.6,2.7,3.1,2.9,1.2c0.8-12.7,1.6-25.3,2.3-38
				C337.1,334.6,334.4,333,334.3,334.8L334.3,334.8z"/>
		</g>
	</g>
	<g display="inline">
		<g>
			<path fill="#231F20" d="M654.2,325.6c-0.6,15.9-1.2,31.8-1.8,47.7c-0.1,1.7,3.1,2.1,3.2,0.4c0.6-15.9,1.2-31.8,1.8-47.7
				C657.6,324.2,654.4,323.8,654.2,325.6L654.2,325.6z"/>
		</g>
	</g>
</g>
<g id="Layer_3">
	<g>
		<path fill="#FFFFFF" d="M157.4,372.4l13.5,30.9l14.3-34.4l14.1,34.4l13.6-30.9h8.8L199.1,421l-14-34l-14,34l-22.3-48.6H157.4z"/>
		<path fill="#FFFFFF" d="M232,372.4l13.5,30.9l14.3-34.4l14.1,34.4l13.6-30.9h8.8L273.8,421l-14.1-34l-14,34l-22.3-48.6L232,372.4
			L232,372.4z"/>
		<path fill="#FFFFFF" d="M306.7,372.4l13.5,30.9l14.3-34.4l14.1,34.4l13.6-30.9h8.8L348.4,421l-14-34l-14,34l-22.3-48.6H306.7z"/>
		<path fill="#FFFFFF" d="M379.5,407.9c3,0,5.4,2.5,5.4,5.4c0,3-2.5,5.4-5.4,5.4s-5.4-2.5-5.4-5.4
			C374.1,410.5,376.6,407.9,379.5,407.9z"/>
		<path fill="#FFFFFF" d="M399.5,372.4h7.9v4.8c2.5-3.8,6.5-6,11.3-6c8.2,0,11.5,5.8,12.3,7.4c4.4-6.9,10.6-7.4,13.7-7.4
			c13.5,0,14.8,11.3,14.8,17.8v28.8h-7.9v-27.6c0-5.2-0.6-11.9-8-11.9c-9.1,0-10.1,8.8-10.1,14.3v25.3h-7.9v-27
			c0-3.1,0.1-12.6-8.2-12.6c-8.9,0-10,9.3-10,14.8v24.8h-7.9V372.4z"/>
		<path fill="#FFFFFF" d="M482.3,338.1v51.2l16.6-16.9h10.2l-19.4,19.4l22.9,25.9h-10.2l-18.1-20.7l-1.9,1.9v18.7h-7.9v-79.9h7.9
			V338.1z"/>
		<path fill="#FFFFFF" d="M555.4,372.4h7.9v45.4h-7.9v-6.4c-2.6,3.4-7.5,7.6-15.6,7.6c-11.5,0-22.2-8-22.2-24.1
			c0-15.7,10.5-23.7,22.2-23.7c8.8,0,13.5,4.8,15.6,7.5V372.4z M525.9,395.1c0,9.7,5.4,17.1,14.9,17.1c9.6,0,15.2-8,15.2-17
			c0-11.7-8-16.9-15.2-16.9C533,378.3,525.9,384,525.9,395.1z"/>
		<path fill="#FFFFFF" d="M582.1,349.6c3.1,0,5.6,2.5,5.6,5.6c0,3.1-2.5,5.6-5.6,5.6c-3.1,0-5.6-2.5-5.6-5.6
			C576.6,352.1,579,349.6,582.1,349.6z M586,372.4v45.4h-7.9v-45.4H586z"/>
		<path fill="#FFFFFF" d="M619.7,382.9c-1-2.6-3.4-4.5-6.4-4.5c-2.9,0-5.4,1.7-5.4,5.2c0,3.2,2.2,4.3,7.4,6.5
			c6.6,2.7,9.6,4.8,11.4,7c1.9,2.5,2.5,4.8,2.5,7.4c0,9.5-6.9,14.9-15.7,14.9c-1.8,0-12.1-0.3-15.8-11.7l6.7-2.9
			c0.9,2.5,3.5,7.4,9.2,7.4c5.2,0,7.4-3.9,7.4-7.3c0-4.3-3.1-5.7-7.4-7.5c-5.4-2.5-8.9-4.1-11-6.7c-1.8-2.2-2.1-4.4-2.1-6.7
			c0-8,5.6-12.7,13.2-12.7c2.5,0,8.8,0.4,12.4,8.2L619.7,382.9z"/>
		<path fill="#FFFFFF" d="M679.8,406.3c-1.3,2.5-3.2,5.3-5.6,7.4c-4.1,3.8-9.3,5.6-15.2,5.6c-10.9,0-22.4-6.9-22.4-23.7
			c0-13.6,8.3-24.1,22-24.1c8.8,0,14.4,4.4,17.2,8.3c2.9,4,4.5,11,4.3,17.1h-35.4c0.1,9.5,6.6,15.4,14.4,15.4c3.8,0,6.7-1,9.3-3.2
			c2.1-1.8,3.8-4,4.7-6.2L679.8,406.3z M672,390.2c-1.3-7.1-6.7-11.8-13.4-11.8s-12.2,5.1-13.4,11.8H672z"/>
		<path fill="#FFFFFF" d="M692.1,372.4h7.9v4.9c0.8-1.2,4.1-6,10.2-6c2.5,0,5.1,0.9,7,1.8l-3.8,7.1c-1.8-1.2-3.4-1.6-4.5-1.6
			c-3.1,0-5.2,1.3-6.4,2.9c-1.3,1.8-2.6,4.8-2.6,12.3v24h-7.9V372.4z"/>
		<path fill="#FFFFFF" d="M724.4,407.9c3,0,5.4,2.5,5.4,5.4c0,3-2.5,5.4-5.4,5.4c-3,0-5.4-2.5-5.4-5.4
			C718.8,410.5,721.4,407.9,724.4,407.9z"/>
		<path fill="#FFFFFF" d="M748.2,349.6c3.1,0,5.6,2.5,5.6,5.6c0,3.1-2.5,5.6-5.6,5.6c-3.1,0-5.6-2.5-5.6-5.6
			C742.6,352.1,745.1,349.6,748.2,349.6z M752.1,372.4v45.4h-7.9v-45.4H752.1z"/>
		<path fill="#FFFFFF" d="M764.1,395.2c0-13.7,10.2-24,24.1-24c13.9,0,24.1,10.2,24.1,24s-10.2,23.9-24.1,23.9
			S764.1,409.1,764.1,395.2z M772.2,395.2c0,11.1,7.9,16.9,15.9,16.9c8.2,0,15.9-5.8,15.9-16.9c0-11.1-7.6-17-15.9-17
			C780,378.3,772.2,384.2,772.2,395.2z"/>
	</g>
</g>
</svg>
