<?xml version="1.0" encoding="utf-8"?>
<!-- Generator: Adobe Illustrator 18.0.0, SVG Export Plug-In . SVG Version: 6.00 Build 0)  -->
<!DOCTYPE svg PUBLIC "-//W3C//DTD SVG 1.1//EN" "http://www.w3.org/Graphics/SVG/1.1/DTD/svg11.dtd">
<svg version="1.1" xmlns="http://www.w3.org/2000/svg" xmlns:xlink="http://www.w3.org/1999/xlink" x="0px" y="0px"
	 viewBox="0 0 720 252" enable-background="new 0 0 720 252" xml:space="preserve">
<g id="track">
	<g>
		<path fill="#FFFFFF" d="M57.8,31c0,0,2.3,1.7,6.7,4.8c4.4,3.1,11,7.4,19.5,12.7c8.5,5.3,19.1,11.4,31.4,17.8
			c12.4,6.4,26.6,13.2,42.5,19.5c15.9,6.4,33.5,12.4,52.4,17.1c19,4.8,39.4,8.3,60.6,9.4c5.3,0.3,10.7,0.4,16.1,0.4
			c2.7,0,5.4,0,8.1-0.1c2.6-0.1,5.4-0.3,8-0.5c10.8-1,21.6-3.1,32.2-6.2c10.7-3,21.2-7,31.5-11.5c10.4-4.5,20.5-9.6,30.6-14.9
			c20.1-10.7,39.8-22.6,59.9-33.2C477.4,35.8,498,26.2,519.5,21c10.7-2.6,21.6-4.1,32.2-4c10.7,0,21.1,1.5,30.9,4.2
			c9.8,2.7,19,6.5,27.3,10.9c8.4,4.5,16.1,9.5,22.9,14.9c13.8,11.1,24.2,23.3,32.6,34.6c8.5,11.3,14.9,21.8,19.9,30.5
			c5,8.8,8.6,15.8,10.9,20.7c2.3,4.9,3.4,7.5,3.4,7.5s-1.3-2.5-4.1-7.2c-2.8-4.6-6.8-11.4-12.4-19.7c-5.5-8.3-12.6-18.2-21.4-29
			c-4.4-5.3-9.3-10.9-14.7-16.3c-5.4-5.5-11.5-11-18.1-15.9c-6.8-5-14.2-9.8-22.3-13.9c-8-4.1-16.7-7.7-26-10.1
			c-9.2-2.4-19-3.7-29-3.6c-10,0.1-20.3,1.5-30.4,4c-20.4,5-40.5,14.3-60.2,24.8c-19.8,10.5-39.5,22.3-59.9,33
			c-10.2,5.4-20.6,10.5-31.2,15.1c-10.6,4.6-21.5,8.5-32.6,11.5c-11.1,3-22.4,5.2-33.6,6.1c-2.8,0.2-5.6,0.4-8.5,0.5
			c-1.4,0-2.7,0.1-4.2,0.1c-1.4,0-2.8,0-4.2,0c-5.5-0.1-11-0.3-16.4-0.7c-21.7-1.6-42.4-5.5-61.6-10.7
			c-19.2-5.2-36.8-11.8-52.6-18.6c-15.9-6.9-30-14.1-42.2-21c-12.2-6.9-22.5-13.4-30.9-19c-8.3-5.6-14.7-10.3-19-13.6
			C60,32.9,57.8,31,57.8,31z"/>
	</g>
	<g>
		<path fill="#FFFFFF" d="M20.7,79.7c0,0,2.2,1.7,6.4,4.6c4.2,3,10.5,7.2,18.7,12.2c8.2,5.1,18.3,11,30.1,17.2
			c11.8,6.3,25.5,12.8,40.7,19.1c15.2,6.3,32,12.3,50.2,17.2c18.2,4.9,37.7,8.7,58,10.5c10.2,0.9,20.6,1.2,31,1c1.3,0,2.7-0.1,4-0.1
			c1.3-0.1,2.6-0.2,3.9-0.3c2.6-0.1,5.2-0.5,7.8-0.8c5.2-0.7,10.4-1.6,15.6-2.7c10.4-2.3,20.7-5.5,30.8-9.4c2.5-0.9,5-2,7.5-3
			c2.5-1.1,5-2.1,7.5-3.3c5-2.2,9.9-4.6,14.8-7c19.6-9.7,38.5-20.9,57.5-31.5c9.5-5.3,19-10.4,28.7-15.1c9.7-4.7,19.4-8.9,29.4-12.5
			c9.9-3.5,20-6.2,30.1-7.9c5-0.8,10.1-1.3,15.1-1.6c5-0.2,10-0.2,14.8,0.2c1.2,0.1,2.4,0.2,3.6,0.3c1.2,0.1,2.4,0.3,3.6,0.4
			c1.2,0.2,2.4,0.4,3.6,0.6l1.8,0.3l1.7,0.4c1.2,0.2,2.3,0.5,3.5,0.7c1.1,0.3,2.3,0.6,3.4,0.9c2.3,0.5,4.5,1.3,6.7,1.9
			c8.8,2.8,16.8,6.4,24.3,10.4c7.4,4,14.2,8.5,20.3,13c1.5,1.1,3,2.2,4.5,3.3c1.5,1.1,2.9,2.3,4.3,3.4c2.9,2.2,5.5,4.4,8.2,6.6
			c10.4,8.7,18.9,16.8,25.7,23.7c3.4,3.5,6.4,6.6,8.9,9.4c2.5,2.8,4.6,5.2,6.3,7.2c3.3,4,4.9,6.2,4.9,6.2s-1.9-2-5.7-5.5
			c-3.7-3.6-9.3-8.7-16.6-15c-7.3-6.2-16.3-13.7-27-21.6c-2.7-2-5.4-4.1-8.3-6.1c-1.4-1-2.9-2.1-4.4-3.1c-1.5-1-3.1-2.1-4.6-3.1
			c-0.8-0.5-1.6-1.1-2.4-1.6l-1.2-0.8l-1.2-0.8c-1.6-1-3.2-2.1-4.8-3.2c-1.7-1-3.3-2-5-3c-1.7-1-3.5-1.9-5.2-2.9
			c-14.2-7.6-31-13.4-49.3-14.6c-1.1-0.1-2.3-0.1-3.4-0.2c-1.2,0-2.3,0-3.5,0l-1.7,0l-1.8,0c-1.2,0-2.3,0.1-3.5,0.1
			c-4.7,0.3-9.5,0.8-14.2,1.5c-9.5,1.6-19.2,4.2-28.7,7.6c-19.1,6.8-37.9,16.7-56.8,27.1c-18.9,10.4-38,21.6-58,31.5
			c-19.9,9.9-40.8,18.2-62.5,22.8c-5.4,1.2-10.9,2-16.3,2.7c-2.7,0.2-5.4,0.6-8.2,0.7c-1.4,0.1-2.8,0.2-4.1,0.2
			c-1.3,0-2.7,0.1-4,0.1l-1,0l-0.6,0l-0.5,0l-2,0c-1.3,0-2.7,0-4,0c-2.7-0.1-5.3-0.1-8-0.3c-5.3-0.2-10.6-0.7-15.7-1.2
			c-10.4-1.1-20.5-2.7-30.4-4.7c-9.8-2-19.4-4.4-28.5-7.1c-18.3-5.4-35.2-11.8-50.3-18.6c-15.2-6.8-28.7-13.8-40.4-20.5
			c-11.7-6.7-21.6-13-29.6-18.4c-8-5.4-14.1-9.9-18.2-13.1C22.8,81.5,20.7,79.7,20.7,79.7z"/>
	</g>
	<line fill="none" stroke="#FFFFFF" stroke-width="4" stroke-miterlimit="10" x1="54.4" y1="102.7" x2="96.5" y2="57.1"/>
	<line fill="none" stroke="#FFFFFF" stroke-width="4" stroke-miterlimit="10" x1="90.8" y1="123.1" x2="133.1" y2="76.9"/>
	<line fill="none" stroke="#FFFFFF" stroke-width="4" stroke-miterlimit="10" x1="128.5" y1="139.9" x2="165.9" y2="91.3"/>
	<line fill="none" stroke="#FFFFFF" stroke-width="4" stroke-miterlimit="10" x1="165.9" y1="152.5" x2="199.2" y2="102.7"/>
	<line fill="none" stroke="#FFFFFF" stroke-width="4" stroke-miterlimit="10" x1="206.9" y1="161.5" x2="230.5" y2="110.4"/>
	<line fill="none" stroke="#FFFFFF" stroke-width="4" stroke-miterlimit="10" x1="247.4" y1="164.9" x2="256.6" y2="115.6"/>
	<line fill="none" stroke="#FFFFFF" stroke-width="4" stroke-miterlimit="10" x1="284.5" y1="161.8" x2="285.5" y2="116.3"/>
	<line fill="none" stroke="#FFFFFF" stroke-width="4" stroke-miterlimit="10" x1="319.6" y1="151.5" x2="317.4" y2="113.8"/>
	<line fill="none" stroke="#FFFFFF" stroke-width="4" stroke-miterlimit="10" x1="348.1" y1="138.9" x2="345.1" y2="106.9"/>
	<line fill="none" stroke="#FFFFFF" stroke-width="4" stroke-miterlimit="10" x1="379.5" y1="122.2" x2="376.8" y2="94.2"/>
	<line fill="none" stroke="#FFFFFF" stroke-width="4" stroke-miterlimit="10" x1="410.4" y1="104.8" x2="410.4" y2="76.9"/>
	<line fill="none" stroke="#FFFFFF" stroke-width="4" stroke-miterlimit="10" x1="436" y1="91.3" x2="438.9" y2="60.9"/>
	<line fill="none" stroke="#FFFFFF" stroke-width="4" stroke-miterlimit="10" x1="470.6" y1="76.9" x2="474.8" y2="41.8"/>
	<line fill="none" stroke="#FFFFFF" stroke-width="4" stroke-miterlimit="10" x1="513.1" y1="69.3" x2="521.5" y2="24.3"/>
	<line fill="none" stroke="#FFFFFF" stroke-width="4" stroke-miterlimit="10" x1="554" y1="76.1" x2="576" y2="24.3"/>
	<line fill="none" stroke="#FFFFFF" stroke-width="4" stroke-miterlimit="10" x1="586.1" y1="92.7" x2="621.3" y2="41.8"/>
	<line fill="none" stroke="#FFFFFF" stroke-width="4" stroke-miterlimit="10" x1="613.5" y1="112.8" x2="653.4" y2="73"/>
	<line fill="none" stroke="#FFFFFF" stroke-width="4" stroke-miterlimit="10" x1="641.1" y1="136" x2="680.7" y2="106.9"/>
</g>
<g id="supports" display="none">
	<g display="inline">
		<g>
			<path fill="#231F20" d="M384.6,200.6c-0.8,29.3-1.6,58.6-2.5,87.9c0,0.5,2.3-0.2,2.3-0.8c0.8-29.3,1.6-58.6,2.5-87.9
				C386.9,199.3,384.6,200.1,384.6,200.6L384.6,200.6z"/>
		</g>
	</g>
	<g display="inline">
		<g>
			<path fill="#231F20" d="M124.3,221.2c-1.4,22.3-2.9,44.6-4.3,66.9c0,0.4,2.5,0.5,2.5,0.1c1.4-22.3,2.9-44.6,4.3-66.9
				C126.8,220.9,124.3,220.8,124.3,221.2L124.3,221.2z"/>
		</g>
	</g>
	<g display="inline">
		<g>
			<path fill="#231F20" d="M247.6,258.3c-0.6,9.8-1.2,19.5-1.8,29.3c-0.1,1.2,2.1,2.4,2.2,0.9c0.6-9.8,1.2-19.5,1.8-29.3
				C249.8,258.1,247.7,256.9,247.6,258.3L247.6,258.3z"/>
		</g>
	</g>
	<g display="inline">
		<g>
			<path fill="#231F20" d="M494.4,251.2c-0.5,12.3-0.9,24.5-1.4,36.8c-0.1,1.3,2.4,1.6,2.5,0.3c0.5-12.3,0.9-24.5,1.4-36.8
				C497,250.1,494.5,249.8,494.4,251.2L494.4,251.2z"/>
		</g>
	</g>
</g>
<g id="Layer_3">
	<g>
		<path fill="#FFFFFF" d="M111.1,196.3l10.4,23.8l11-26.5l10.9,26.5l10.5-23.8h6.8l-17.4,37.5l-10.8-26.2l-10.8,26.2l-17.2-37.5
			H111.1z"/>
		<path fill="#FFFFFF" d="M168.7,196.3l10.4,23.8l11-26.5l10.9,26.5l10.5-23.8h6.8l-17.4,37.5L190,207.6l-10.8,26.2l-17.2-37.5
			H168.7z"/>
		<path fill="#FFFFFF" d="M226.3,196.3l10.4,23.8l11-26.5l10.9,26.5l10.5-23.8h6.8l-17.4,37.5l-10.8-26.2l-10.8,26.2l-17.2-37.5
			H226.3z"/>
		<path fill="#FFFFFF" d="M282.5,223.7c2.3,0,4.2,1.9,4.2,4.2c0,2.3-1.9,4.2-4.2,4.2s-4.2-1.9-4.2-4.2
			C278.3,225.7,280.2,223.7,282.5,223.7z"/>
		<path fill="#FFFFFF" d="M297.9,196.3h6.1v3.7c1.9-2.9,5-4.6,8.7-4.6c6.3,0,8.9,4.5,9.5,5.7c3.4-5.3,8.2-5.7,10.6-5.7
			c10.4,0,11.4,8.7,11.4,13.7v22.2h-6.1V210c0-4-0.5-9.2-6.2-9.2c-7,0-7.8,6.8-7.8,11v19.5H318v-20.8c0-2.4,0.1-9.7-6.3-9.7
			c-6.9,0-7.7,7.2-7.7,11.4v19.1h-6.1V196.3z"/>
		<path fill="#FFFFFF" d="M361.8,169.8v39.5l12.8-13h7.9l-15,15l17.7,20h-7.9l-14-16l-1.5,1.5v14.4h-6.1v-61.6H361.8z"/>
		<path fill="#FFFFFF" d="M418.2,196.3h6.1v35h-6.1v-4.9c-2,2.6-5.8,5.9-12,5.9c-8.9,0-17.1-6.2-17.1-18.6
			c0-12.1,8.1-18.3,17.1-18.3c6.8,0,10.4,3.7,12,5.8V196.3z M395.4,213.8c0,7.5,4.2,13.2,11.5,13.2c7.4,0,11.7-6.2,11.7-13.1
			c0-9-6.2-13-11.7-13C400.9,200.8,395.4,205.2,395.4,213.8z"/>
		<path fill="#FFFFFF" d="M438.8,178.7c2.4,0,4.3,1.9,4.3,4.3s-1.9,4.3-4.3,4.3s-4.3-1.9-4.3-4.3S436.4,178.7,438.8,178.7z
			 M441.8,196.3v35h-6.1v-35H441.8z"/>
		<path fill="#FFFFFF" d="M467.8,204.4c-0.8-2-2.6-3.5-4.9-3.5c-2.2,0-4.2,1.3-4.2,4c0,2.5,1.7,3.3,5.7,5c5.1,2.1,7.4,3.7,8.8,5.4
			c1.5,1.9,1.9,3.7,1.9,5.7c0,7.3-5.3,11.5-12.1,11.5c-1.4,0-9.3-0.2-12.2-9l5.2-2.2c0.7,1.9,2.7,5.7,7.1,5.7c4,0,5.7-3,5.7-5.6
			c0-3.3-2.4-4.4-5.7-5.8c-4.2-1.9-6.9-3.2-8.5-5.2c-1.4-1.7-1.6-3.4-1.6-5.2c0-6.2,4.3-9.8,10.2-9.8c1.9,0,6.8,0.3,9.6,6.3
			L467.8,204.4z"/>
		<path fill="#FFFFFF" d="M514.1,222.4c-1,1.9-2.5,4.1-4.3,5.7c-3.2,2.9-7.2,4.3-11.7,4.3c-8.4,0-17.3-5.3-17.3-18.3
			c0-10.5,6.4-18.6,17-18.6c6.8,0,11.1,3.4,13.3,6.4c2.2,3.1,3.5,8.5,3.3,13.2h-27.3c0.1,7.3,5.1,11.9,11.1,11.9
			c2.9,0,5.2-0.8,7.2-2.5c1.6-1.4,2.9-3.1,3.6-4.8L514.1,222.4z M508.1,210c-1-5.5-5.2-9.1-10.3-9.1s-9.4,3.9-10.3,9.1H508.1z"/>
		<path fill="#FFFFFF" d="M523.6,196.3h6.1v3.8c0.6-0.9,3.2-4.6,7.9-4.6c1.9,0,3.9,0.7,5.4,1.4l-2.9,5.5c-1.4-0.9-2.6-1.2-3.5-1.2
			c-2.4,0-4,1-4.9,2.2c-1,1.4-2,3.7-2,9.5v18.5h-6.1V196.3z"/>
		<path fill="#FFFFFF" d="M548.5,223.7c2.3,0,4.2,1.9,4.2,4.2c0,2.3-1.9,4.2-4.2,4.2c-2.3,0-4.2-1.9-4.2-4.2
			C544.2,225.7,546.2,223.7,548.5,223.7z"/>
		<path fill="#FFFFFF" d="M566.9,178.7c2.4,0,4.3,1.9,4.3,4.3s-1.9,4.3-4.3,4.3s-4.3-1.9-4.3-4.3S564.5,178.7,566.9,178.7z
			 M569.9,196.3v35h-6.1v-35H569.9z"/>
		<path fill="#FFFFFF" d="M579.2,213.9c0-10.6,7.9-18.5,18.6-18.5c10.7,0,18.6,7.9,18.6,18.5s-7.9,18.4-18.6,18.4
			S579.2,224.6,579.2,213.9z M585.4,213.9c0,8.6,6.1,13,12.3,13c6.3,0,12.3-4.5,12.3-13c0-8.6-5.9-13.1-12.3-13.1
			C591.4,200.8,585.4,205.4,585.4,213.9z"/>
	</g>
	<g>
	</g>
	<g>
	</g>
	<g>
	</g>
	<g>
	</g>
	<g>
	</g>
	<g>
	</g>
</g>
</svg>
