<?xml version="1.0" encoding="utf-8"?>
<!-- Generator: Adobe Illustrator 18.0.0, SVG Export Plug-In . SVG Version: 6.00 Build 0)  -->
<!DOCTYPE svg PUBLIC "-//W3C//DTD SVG 1.1//EN" "http://www.w3.org/Graphics/SVG/1.1/DTD/svg11.dtd">
<svg version="1.1" xmlns="http://www.w3.org/2000/svg" xmlns:xlink="http://www.w3.org/1999/xlink" x="0px" y="0px"
	 viewBox="0 0 560 560" enable-background="new 0 0 560 560" xml:space="preserve">
<g id="orange">
	<rect x="-3051.5" y="-59.8" display="none" fill="#E6A916" width="3765.4" height="686.5"/>
	<g>
		<g>
			<path fill="#FFFFFF" d="M35,326.8c42.7-22.2,85.4-44.3,128.1-66.5c1.4-0.7,2.8-1.5,4.2-2.2c11.5-5.9,1.3-23.2-10.1-17.3
				c-42.7,22.2-85.4,44.3-128.1,66.5c-1.4,0.7-2.8,1.5-4.2,2.2C13.5,315.4,23.6,332.7,35,326.8L35,326.8z"/>
		</g>
	</g>
	<g>
		<g>
			<path fill="#FFFFFF" d="M152.3,249.5c0,44.5,0.1,88.9,0.1,133.4c0,44.1,0.1,88.2,0.1,132.4c0,12.9,20,12.9,20,0
				c0-44.5-0.1-88.9-0.1-133.4c0-44.1-0.1-88.2-0.1-132.4C172.3,236.6,152.3,236.6,152.3,249.5L152.3,249.5z"/>
		</g>
	</g>
	<g>
		<g>
			<path fill="#FFFFFF" d="M127.7,90.9c39.6,27.3,79.2,54.6,118.9,81.9c1.3,0.9,2.6,1.8,3.9,2.7c4.5,3.1,11.1,0.9,13.7-3.6
				c2.9-5,0.9-10.6-3.6-13.7c-39.6-27.3-79.2-54.6-118.9-81.9c-1.3-0.9-2.6-1.8-3.9-2.7c-4.5-3.1-11.1-0.9-13.7,3.6
				C121.2,82.2,123.2,87.8,127.7,90.9L127.7,90.9z"/>
		</g>
	</g>
	<g>
		<g>
			<path fill="#FFFFFF" d="M250.5,158.2c-39.2,20.9-78.5,41.8-117.7,62.7C93.9,241.7,55,262.5,16,283.2
				c-11.4,6.1-1.3,23.3,10.1,17.3c39.2-20.9,78.5-41.8,117.7-62.7c38.9-20.8,77.9-41.5,116.8-62.3
				C272,169.4,261.9,152.2,250.5,158.2L250.5,158.2z"/>
		</g>
	</g>
	<g>
		<g>
			<path fill="#FFFFFF" d="M372.4,54.7c-5.2,47.8-10.4,95.7-15.6,143.5c-0.2,1.6-0.3,3.2-0.5,4.7c-0.6,5.4,5,10,10,10
				c5.9,0,9.4-4.6,10-10c5.2-47.8,10.4-95.7,15.6-143.5c0.2-1.6,0.3-3.2,0.5-4.7c0.6-5.4-5-10-10-10C376.5,44.7,373,49.3,372.4,54.7
				L372.4,54.7z"/>
		</g>
	</g>
	<g>
		<g>
			<path fill="#FFFFFF" d="M371.3,194.3c-37-24.6-74.1-49.2-111.1-73.8C223.5,96.2,186.7,71.8,150,47.4
				c-10.8-7.2-20.8,10.2-10.1,17.3c37,24.6,74.1,49.2,111.1,73.8c36.8,24.4,73.5,48.8,110.3,73.2C372,218.7,382,201.4,371.3,194.3
				L371.3,194.3z"/>
		</g>
	</g>
	<g>
		<g>
			<path fill="#FFFFFF" d="M520.7,249.8c-44.4,18.5-88.8,37-133.2,55.6c-1.5,0.6-2.9,1.2-4.4,1.8c-5,2.1-8.6,6.5-7,12.3
				c1.3,4.8,7.3,9.1,12.3,7c44.4-18.5,88.8-37,133.2-55.6c1.5-0.6,2.9-1.2,4.4-1.8c5-2.1,8.6-6.5,7-12.3
				C531.7,252,525.8,247.7,520.7,249.8L520.7,249.8z"/>
		</g>
	</g>
	<g>
		<g>
			<path fill="#FFFFFF" d="M395.8,316.8c4.8-44.5,9.7-88.9,14.5-133.4c4.6-42.1,9.2-84.3,13.8-126.4c0.6-5.4-5-10-10-10
				c-5.9,0-9.4,4.6-10,10c-4.8,44.5-9.7,88.9-14.5,133.4c-4.6,42.1-9.2,84.3-13.8,126.4c-0.6,5.4,5,10,10,10
				C391.7,326.8,395.2,322.2,395.8,316.8L395.8,316.8z"/>
		</g>
	</g>
	<g>
		<g>
			<path fill="#FFFFFF" d="M456.5,463.6c-44.6-22.3-89.2-44.7-133.8-67c-8.5-4.3-17-8.5-25.6-12.8c-11.5-5.8-21.6,11.5-10.1,17.3
				c44.6,22.3,89.2,44.7,133.8,67c8.5,4.3,17,8.5,25.6,12.8C457.9,486.6,468.1,469.4,456.5,463.6L456.5,463.6z"/>
		</g>
	</g>
	<g>
		<g>
			<path fill="#FFFFFF" d="M297.2,401c40.8-17.7,81.6-35.4,122.3-53c40.5-17.5,81-35.1,121.4-52.6c5-2.2,6.1-9.4,3.6-13.7
				c-3-5.1-8.7-5.8-13.7-3.6c-40.8,17.7-81.6,35.4-122.3,53c-40.5,17.5-81,35.1-121.4,52.6c-5,2.2-6.1,9.4-3.6,13.7
				C286.5,402.6,292.2,403.2,297.2,401L297.2,401z"/>
		</g>
	</g>
</g>
<g id="home">
</g>
<g id="about">
</g>
<g id="blog_1">
</g>
<g id="blog_2" display="none">
</g>
<g id="blog_3" display="none">
</g>
<g id="menu">
</g>
<g id="close">
</g>
<g id="photography" display="none">
	
		<circle id="circle_2_" display="inline" fill="none" stroke="#FFFFFF" stroke-width="30" stroke-miterlimit="10" cx="279.8" cy="279.9" r="258.5"/>
	<g display="inline">
		<g>
			<path fill="#FFFFFF" d="M457.6,384.6c-37.4,0-74.9,0-112.3,0c-62.5,0-124.9,0-187.4,0c-18.6,0-37.3,0-55.9,0
				c3.7,3.7,7.3,7.3,11,11c0-47.8,0-95.5,0-143.3c0-27,0-54.1,0-81.1c-3.7,3.7-7.3,7.3-11,11c37.4,0,74.9,0,112.3,0
				c62.5,0,124.9,0,187.4,0c18.6,0,37.3,0,55.9,0c-3.7-3.7-7.3-7.3-11-11c0,47.8,0,95.5,0,143.3c0,27,0,54.1,0,81.1
				c0,14.2,22,14.2,22,0c0-47.8,0-95.5,0-143.3c0-27,0-54.1,0-81.1c0-6-5-11-11-11c-37.4,0-74.9,0-112.3,0c-62.5,0-124.9,0-187.4,0
				c-18.6,0-37.3,0-55.9,0c-6,0-11,5-11,11c0,47.8,0,95.5,0,143.3c0,27,0,54.1,0,81.1c0,6,5,11,11,11c37.4,0,74.9,0,112.3,0
				c62.5,0,124.9,0,187.4,0c18.6,0,37.3,0,55.9,0C471.8,406.6,471.8,384.6,457.6,384.6z"/>
		</g>
	</g>
	<circle display="inline" fill="none" stroke="#FFFFFF" stroke-width="20" stroke-miterlimit="10" cx="329.5" cy="283.2" r="78.2"/>
	<g display="inline">
		<g>
			<path fill="#FFFFFF" d="M206.2,133.4c-22.3,0-44.6,0-66.9,0c-2.7,0-5,2.3-5,5c0,11,0,21.9,0,32.9c0,2.7,2.3,5,5,5
				c22.3,0,44.6,0,66.9,0c2.7,0,5-2.3,5-5c0-11,0-21.9,0-32.9c0-6.4-10-6.4-10,0c0,11,0,21.9,0,32.9c1.7-1.7,3.3-3.3,5-5
				c-22.3,0-44.6,0-66.9,0c1.7,1.7,3.3,3.3,5,5c0-11,0-21.9,0-32.9c-1.7,1.7-3.3,3.3-5,5c22.3,0,44.6,0,66.9,0
				C212.7,143.4,212.7,133.4,206.2,133.4z"/>
		</g>
	</g>
	<rect x="139.4" y="205" display="inline" fill="#FFFFFF" stroke="#FFFFFF" stroke-miterlimit="10" width="92.5" height="24"/>
</g>
<g id="photography_2">
	<circle id="circle_4_" fill="none" stroke="#FFFFFF" stroke-width="30" stroke-miterlimit="10" cx="279.8" cy="279.9" r="258.5"/>
	<g>
		<g>
			<path fill="#FFFFFF" d="M203.3,523.5c-0.5-48.1-1-96.2-1.5-144.3c0-1.6,0-3.2,0-4.8c-0.1-12.9-20.1-12.9-20,0
				c0.5,48.1,1,96.2,1.5,144.3c0,1.6,0,3.2,0,4.8C183.4,536.4,203.4,536.4,203.3,523.5L203.3,523.5z"/>
		</g>
	</g>
	<g>
		<g>
			<path fill="#FFFFFF" d="M186.7,383c39.7,20,79.4,40.1,119,60.1c39.4,19.9,78.8,39.8,118.1,59.7c11.5,5.8,21.6-11.5,10.1-17.3
				c-39.7-20-79.4-40.1-119-60.1c-39.4-19.9-78.8-39.8-118.1-59.7C185.3,359.9,175.2,377.2,186.7,383L186.7,383z"/>
		</g>
	</g>
</g>
</svg>
