<?xml version="1.0" encoding="utf-8"?>
<!-- Generator: Adobe Illustrator 18.0.0, SVG Export Plug-In . SVG Version: 6.00 Build 0)  -->
<!DOCTYPE svg PUBLIC "-//W3C//DTD SVG 1.1//EN" "http://www.w3.org/Graphics/SVG/1.1/DTD/svg11.dtd">
<svg version="1.1" xmlns="http://www.w3.org/2000/svg" xmlns:xlink="http://www.w3.org/1999/xlink" x="0px" y="0px"
	 viewBox="0 0 560 560" enable-background="new 0 0 560 560" xml:space="preserve">
<g id="orange">
	<rect x="-3051.5" y="-59.8" display="none" fill="#E6A916" width="3765.4" height="686.5"/>
</g>
<g id="home">
</g>
<g id="about">
</g>
<g id="blog_1">
</g>
<g id="blog_2" display="none">
</g>
<g id="blog_3" display="none">
</g>
<g id="menu">
</g>
<g id="close">
</g>
<g id="photography">
	<circle id="circle_2_" fill="none" stroke="#FFFFFF" stroke-width="30" stroke-miterlimit="10" cx="279.8" cy="279.9" r="258.5"/>
	<g>
		<g>
			<path fill="#FFFFFF" d="M457.6,384.6c-37.4,0-74.9,0-112.3,0c-62.5,0-124.9,0-187.4,0c-18.6,0-37.3,0-55.9,0
				c3.7,3.7,7.3,7.3,11,11c0-47.8,0-95.5,0-143.3c0-27,0-54.1,0-81.1c-3.7,3.7-7.3,7.3-11,11c37.4,0,74.9,0,112.3,0
				c62.5,0,124.9,0,187.4,0c18.6,0,37.3,0,55.9,0c-3.7-3.7-7.3-7.3-11-11c0,47.8,0,95.5,0,143.3c0,27,0,54.1,0,81.1
				c0,14.2,22,14.2,22,0c0-47.8,0-95.5,0-143.3c0-27,0-54.1,0-81.1c0-6-5-11-11-11c-37.4,0-74.9,0-112.3,0c-62.5,0-124.9,0-187.4,0
				c-18.6,0-37.3,0-55.9,0c-6,0-11,5-11,11c0,47.8,0,95.5,0,143.3c0,27,0,54.1,0,81.1c0,6,5,11,11,11c37.4,0,74.9,0,112.3,0
				c62.5,0,124.9,0,187.4,0c18.6,0,37.3,0,55.9,0C471.8,406.6,471.8,384.6,457.6,384.6z"/>
		</g>
	</g>
	<circle fill="none" stroke="#FFFFFF" stroke-width="20" stroke-miterlimit="10" cx="329.5" cy="283.2" r="78.2"/>
	<g>
		<g>
			<path fill="#FFFFFF" d="M206.2,133.4c-22.3,0-44.6,0-66.9,0c-2.7,0-5,2.3-5,5c0,11,0,21.9,0,32.9c0,2.7,2.3,5,5,5
				c22.3,0,44.6,0,66.9,0c2.7,0,5-2.3,5-5c0-11,0-21.9,0-32.9c0-6.4-10-6.4-10,0c0,11,0,21.9,0,32.9c1.7-1.7,3.3-3.3,5-5
				c-22.3,0-44.6,0-66.9,0c1.7,1.7,3.3,3.3,5,5c0-11,0-21.9,0-32.9c-1.7,1.7-3.3,3.3-5,5c22.3,0,44.6,0,66.9,0
				C212.7,143.4,212.7,133.4,206.2,133.4z"/>
		</g>
	</g>
	<rect x="139.4" y="205" fill="#FFFFFF" stroke="#FFFFFF" stroke-miterlimit="10" width="92.5" height="24"/>
</g>
</svg>
