<?xml version="1.0" encoding="utf-8"?>
<!-- Generator: Adobe Illustrator 18.0.0, SVG Export Plug-In . SVG Version: 6.00 Build 0)  -->
<!DOCTYPE svg PUBLIC "-//W3C//DTD SVG 1.1//EN" "http://www.w3.org/Graphics/SVG/1.1/DTD/svg11.dtd">
<svg version="1.1" xmlns="http://www.w3.org/2000/svg" xmlns:xlink="http://www.w3.org/1999/xlink" x="0px" y="0px"
	 viewBox="0 0 560 560" enable-background="new 0 0 560 560" xml:space="preserve">
<g id="orange" display="none">
	<rect x="-3631.5" y="-59.8" display="inline" fill="#E6A916" width="4250.2" height="686.5"/>
</g>
<g id="home">
</g>
<g id="about">
</g>
<g id="blog_1">
</g>
<g id="blog_2" display="none">
</g>
<g id="blog_3" display="none">
</g>
<g id="menu">
</g>
<g id="close">
</g>
<g id="photography" display="none">
</g>
<g id="photography_2" display="none">
</g>
<g id="photography_3">
</g>
<g id="projects">
	<circle id="circle_6_" fill="none" stroke="#FFFFFF" stroke-width="30" stroke-miterlimit="10" cx="279.8" cy="279.9" r="258.5"/>
	<g>
		<path fill="#FFFFFF" stroke="#FFFFFF" stroke-miterlimit="10" d="M183.8,218.4l-60,65.6l60,66.4l-14.4,21.9l-77.1-86.2v-2.4
			l77.7-86.2L183.8,218.4z"/>
		<path fill="#FFFFFF" stroke="#FFFFFF" stroke-miterlimit="10" d="M342.8,128.2l-102,318.3l-22.2-12.3l101.7-318.3L342.8,128.2z"/>
		<path fill="#FFFFFF" stroke="#FFFFFF" stroke-miterlimit="10" d="M469.4,283.5v2.4L392,372.1l-14.4-21.9l60-66.4l-60-65.6
			l13.8-21.1L469.4,283.5z"/>
	</g>
	<g display="none">
		<path display="inline" fill="#FFFFFF" d="M181.5,309.5c0-7.7-1.7-13.7-5-18s-9-6.4-17.2-6.4h-1.6v-24.4h1.6
			c8.1,0,13.9-2.1,17.2-6.4s5-10.3,5-18v-64c0-15,3.7-25.5,11.1-31.7c7.4-6.2,17.4-9.2,30.2-9.2h19.5V155h-15.5
			c-11.7,0-17.5,5.7-17.5,17.2v70.5c0,7.7-1.5,14.2-4.5,19.5c-3,5.3-7.9,8.8-14.7,10.6c6.8,1.8,11.7,5.3,14.7,10.6
			c3,5.3,4.5,11.8,4.5,19.5v70.5c0,11.5,5.8,17.2,17.5,17.2h15.5v23.8h-19.5c-12.8,0-22.8-3.1-30.2-9.2
			c-7.4-6.2-11.1-16.7-11.1-31.7V309.5z"/>
		<path display="inline" fill="#FFFFFF" d="M319.2,390.7h15.5c11.7,0,17.5-5.7,17.5-17.2V303c0-7.7,1.5-14.2,4.5-19.5
			c3-5.3,7.9-8.8,14.7-10.6c-6.8-1.8-11.7-5.3-14.7-10.6c-3-5.3-4.5-11.8-4.5-19.5v-70.5c0-11.5-5.8-17.2-17.5-17.2h-15.5v-23.8
			h19.5c12.8,0,22.8,3.1,30.2,9.2c7.4,6.2,11.1,16.7,11.1,31.7v64c0,7.7,1.6,13.7,5,18c3.3,4.3,9,6.4,17.2,6.4h1.6v24.4H402
			c-8.1,0-13.9,2.1-17.2,6.4c-3.3,4.3-5,10.3-5,18v64c0,15-3.7,25.5-11.1,31.7c-7.4,6.2-17.4,9.2-30.2,9.2h-19.5V390.7z"/>
	</g>
</g>
</svg>
